<mxfile host="Electron" modified="2024-07-16T08:19:10.292Z" agent="Mozilla/5.0 (X11; Linux aarch64) AppleWebKit/537.36 (KHTML, like Gecko) draw.io/24.6.4 Chrome/124.0.6367.207 Electron/30.0.6 Safari/537.36" etag="OPygcibbVx8kw-eqyluB" version="24.6.4" type="device">
  <diagram name="Page-1" id="GFN0_0JCuj6z-RcKJ89g">
    <mxGraphModel dx="1114" dy="1027" grid="1" gridSize="10" guides="1" tooltips="1" connect="1" arrows="1" fold="1" page="1" pageScale="1" pageWidth="827" pageHeight="1169" math="0" shadow="0">
      <root>
        <mxCell id="0" />
        <mxCell id="1" parent="0" />
        <mxCell id="LFqnk9nkdSTqmerXbt5j-3" value="" style="edgeStyle=orthogonalEdgeStyle;rounded=0;orthogonalLoop=1;jettySize=auto;html=1;" edge="1" parent="1" source="LFqnk9nkdSTqmerXbt5j-1" target="LFqnk9nkdSTqmerXbt5j-2">
          <mxGeometry relative="1" as="geometry" />
        </mxCell>
        <mxCell id="LFqnk9nkdSTqmerXbt5j-1" value="Branch" style="rounded=1;whiteSpace=wrap;html=1;" vertex="1" parent="1">
          <mxGeometry x="80" y="320" width="120" height="60" as="geometry" />
        </mxCell>
        <mxCell id="LFqnk9nkdSTqmerXbt5j-5" value="" style="edgeStyle=orthogonalEdgeStyle;rounded=0;orthogonalLoop=1;jettySize=auto;html=1;" edge="1" parent="1" source="LFqnk9nkdSTqmerXbt5j-2" target="LFqnk9nkdSTqmerXbt5j-4">
          <mxGeometry relative="1" as="geometry" />
        </mxCell>
        <mxCell id="LFqnk9nkdSTqmerXbt5j-9" value="" style="edgeStyle=orthogonalEdgeStyle;rounded=0;orthogonalLoop=1;jettySize=auto;html=1;" edge="1" parent="1" source="LFqnk9nkdSTqmerXbt5j-2" target="LFqnk9nkdSTqmerXbt5j-8">
          <mxGeometry relative="1" as="geometry" />
        </mxCell>
        <mxCell id="LFqnk9nkdSTqmerXbt5j-2" value="Merge To Main" style="rounded=1;whiteSpace=wrap;html=1;fillColor=#d5e8d4;strokeColor=#82b366;" vertex="1" parent="1">
          <mxGeometry x="80" y="460" width="120" height="60" as="geometry" />
        </mxCell>
        <mxCell id="LFqnk9nkdSTqmerXbt5j-7" value="" style="edgeStyle=orthogonalEdgeStyle;rounded=0;orthogonalLoop=1;jettySize=auto;html=1;" edge="1" parent="1" source="LFqnk9nkdSTqmerXbt5j-4" target="LFqnk9nkdSTqmerXbt5j-6">
          <mxGeometry relative="1" as="geometry" />
        </mxCell>
        <mxCell id="LFqnk9nkdSTqmerXbt5j-14" value="" style="edgeStyle=orthogonalEdgeStyle;rounded=0;orthogonalLoop=1;jettySize=auto;html=1;" edge="1" parent="1" source="LFqnk9nkdSTqmerXbt5j-4" target="LFqnk9nkdSTqmerXbt5j-12">
          <mxGeometry relative="1" as="geometry" />
        </mxCell>
        <mxCell id="LFqnk9nkdSTqmerXbt5j-4" value="Tag 0.x.x" style="shape=process;whiteSpace=wrap;html=1;backgroundOutline=1;" vertex="1" parent="1">
          <mxGeometry x="80" y="600" width="120" height="60" as="geometry" />
        </mxCell>
        <mxCell id="LFqnk9nkdSTqmerXbt5j-6" value="Build &amp;amp; Test" style="shape=process;whiteSpace=wrap;html=1;backgroundOutline=1;" vertex="1" parent="1">
          <mxGeometry x="80" y="740" width="120" height="60" as="geometry" />
        </mxCell>
        <mxCell id="LFqnk9nkdSTqmerXbt5j-11" value="" style="edgeStyle=orthogonalEdgeStyle;rounded=0;orthogonalLoop=1;jettySize=auto;html=1;" edge="1" parent="1" source="LFqnk9nkdSTqmerXbt5j-8" target="LFqnk9nkdSTqmerXbt5j-10">
          <mxGeometry relative="1" as="geometry" />
        </mxCell>
        <mxCell id="LFqnk9nkdSTqmerXbt5j-13" value="" style="edgeStyle=orthogonalEdgeStyle;rounded=0;orthogonalLoop=1;jettySize=auto;html=1;" edge="1" parent="1" source="LFqnk9nkdSTqmerXbt5j-8" target="LFqnk9nkdSTqmerXbt5j-12">
          <mxGeometry relative="1" as="geometry" />
        </mxCell>
        <mxCell id="LFqnk9nkdSTqmerXbt5j-8" value="Create Release" style="rounded=1;whiteSpace=wrap;html=1;" vertex="1" parent="1">
          <mxGeometry x="280" y="460" width="120" height="60" as="geometry" />
        </mxCell>
        <mxCell id="LFqnk9nkdSTqmerXbt5j-10" value="Package Main" style="rounded=1;whiteSpace=wrap;html=1;" vertex="1" parent="1">
          <mxGeometry x="480" y="460" width="120" height="60" as="geometry" />
        </mxCell>
        <mxCell id="LFqnk9nkdSTqmerXbt5j-16" value="" style="edgeStyle=orthogonalEdgeStyle;rounded=0;orthogonalLoop=1;jettySize=auto;html=1;" edge="1" parent="1" source="LFqnk9nkdSTqmerXbt5j-12" target="LFqnk9nkdSTqmerXbt5j-15">
          <mxGeometry relative="1" as="geometry" />
        </mxCell>
        <mxCell id="LFqnk9nkdSTqmerXbt5j-17" value="YES" style="edgeLabel;html=1;align=center;verticalAlign=middle;resizable=0;points=[];" vertex="1" connectable="0" parent="LFqnk9nkdSTqmerXbt5j-16">
          <mxGeometry x="-0.4" y="-3" relative="1" as="geometry">
            <mxPoint as="offset" />
          </mxGeometry>
        </mxCell>
        <mxCell id="LFqnk9nkdSTqmerXbt5j-19" value="" style="edgeStyle=orthogonalEdgeStyle;rounded=0;orthogonalLoop=1;jettySize=auto;html=1;" edge="1" parent="1" source="LFqnk9nkdSTqmerXbt5j-12" target="LFqnk9nkdSTqmerXbt5j-18">
          <mxGeometry relative="1" as="geometry" />
        </mxCell>
        <mxCell id="LFqnk9nkdSTqmerXbt5j-20" value="NO" style="edgeLabel;html=1;align=center;verticalAlign=middle;resizable=0;points=[];" vertex="1" connectable="0" parent="LFqnk9nkdSTqmerXbt5j-19">
          <mxGeometry x="-0.2" y="-1" relative="1" as="geometry">
            <mxPoint as="offset" />
          </mxGeometry>
        </mxCell>
        <mxCell id="LFqnk9nkdSTqmerXbt5j-12" value="Beta" style="rhombus;whiteSpace=wrap;html=1;rounded=1;" vertex="1" parent="1">
          <mxGeometry x="300" y="590" width="80" height="80" as="geometry" />
        </mxCell>
        <mxCell id="LFqnk9nkdSTqmerXbt5j-25" value="" style="edgeStyle=orthogonalEdgeStyle;rounded=0;orthogonalLoop=1;jettySize=auto;html=1;" edge="1" parent="1" source="LFqnk9nkdSTqmerXbt5j-15" target="LFqnk9nkdSTqmerXbt5j-22">
          <mxGeometry relative="1" as="geometry" />
        </mxCell>
        <mxCell id="LFqnk9nkdSTqmerXbt5j-15" value="0.x.x-beta" style="whiteSpace=wrap;html=1;rounded=1;" vertex="1" parent="1">
          <mxGeometry x="480" y="600" width="120" height="60" as="geometry" />
        </mxCell>
        <mxCell id="LFqnk9nkdSTqmerXbt5j-24" value="" style="edgeStyle=orthogonalEdgeStyle;rounded=0;orthogonalLoop=1;jettySize=auto;html=1;" edge="1" parent="1" source="LFqnk9nkdSTqmerXbt5j-18" target="LFqnk9nkdSTqmerXbt5j-22">
          <mxGeometry relative="1" as="geometry" />
        </mxCell>
        <mxCell id="LFqnk9nkdSTqmerXbt5j-18" value="0.x.x" style="whiteSpace=wrap;html=1;rounded=1;" vertex="1" parent="1">
          <mxGeometry x="280" y="740" width="120" height="60" as="geometry" />
        </mxCell>
        <mxCell id="LFqnk9nkdSTqmerXbt5j-26" value="" style="edgeStyle=orthogonalEdgeStyle;rounded=0;orthogonalLoop=1;jettySize=auto;html=1;" edge="1" parent="1" source="LFqnk9nkdSTqmerXbt5j-22" target="LFqnk9nkdSTqmerXbt5j-23">
          <mxGeometry relative="1" as="geometry" />
        </mxCell>
        <mxCell id="LFqnk9nkdSTqmerXbt5j-22" value="Build &amp;amp; Pack" style="rounded=1;whiteSpace=wrap;html=1;" vertex="1" parent="1">
          <mxGeometry x="480" y="740" width="120" height="60" as="geometry" />
        </mxCell>
        <mxCell id="LFqnk9nkdSTqmerXbt5j-23" value="Nuget Publish" style="shape=process;whiteSpace=wrap;html=1;backgroundOutline=1;" vertex="1" parent="1">
          <mxGeometry x="480" y="880" width="120" height="60" as="geometry" />
        </mxCell>
      </root>
    </mxGraphModel>
  </diagram>
</mxfile>
